<mxfile host="Electron" modified="2024-06-23T20:44:50.682Z" agent="Mozilla/5.0 (Windows NT 10.0; Win64; x64) AppleWebKit/537.36 (KHTML, like Gecko) draw.io/24.6.1 Chrome/124.0.6367.207 Electron/30.0.6 Safari/537.36" etag="ncZK1qQc0LJl8teb1oTy" version="24.6.1" type="device" pages="2">
  <diagram name="Page-1" id="B3G7PexhZ5z4SLL5Kxwy">
    <mxGraphModel dx="2590" dy="1535" grid="1" gridSize="10" guides="1" tooltips="1" connect="1" arrows="1" fold="1" page="1" pageScale="1" pageWidth="850" pageHeight="1100" math="0" shadow="0">
      <root>
        <mxCell id="0" />
        <mxCell id="1" parent="0" />
        <mxCell id="cDjwinY1eeLpdXghqZBT-2" value="" style="rounded=0;whiteSpace=wrap;html=1;" vertex="1" parent="1">
          <mxGeometry x="140.92" y="110" width="460" height="620" as="geometry" />
        </mxCell>
        <mxCell id="cDjwinY1eeLpdXghqZBT-3" value="" style="endArrow=none;html=1;rounded=0;exitX=0.004;exitY=0.194;exitDx=0;exitDy=0;exitPerimeter=0;entryX=1.006;entryY=0.193;entryDx=0;entryDy=0;entryPerimeter=0;" edge="1" parent="1" source="cDjwinY1eeLpdXghqZBT-2" target="cDjwinY1eeLpdXghqZBT-2">
          <mxGeometry width="50" height="50" relative="1" as="geometry">
            <mxPoint x="345.91999999999996" y="250" as="sourcePoint" />
            <mxPoint x="395.92" y="200" as="targetPoint" />
          </mxGeometry>
        </mxCell>
        <mxCell id="cDjwinY1eeLpdXghqZBT-4" value="&lt;font style=&quot;font-size: 20px;&quot;&gt;Header&lt;/font&gt;" style="text;html=1;align=center;verticalAlign=middle;resizable=0;points=[];autosize=1;strokeColor=none;fillColor=none;" vertex="1" parent="1">
          <mxGeometry x="320.91999999999996" y="150" width="90" height="40" as="geometry" />
        </mxCell>
        <mxCell id="cDjwinY1eeLpdXghqZBT-5" value="" style="endArrow=none;html=1;rounded=0;exitX=-0.01;exitY=0.819;exitDx=0;exitDy=0;exitPerimeter=0;" edge="1" parent="1" source="cDjwinY1eeLpdXghqZBT-2">
          <mxGeometry width="50" height="50" relative="1" as="geometry">
            <mxPoint x="470.92" y="450" as="sourcePoint" />
            <mxPoint x="600.9200000000001" y="618" as="targetPoint" />
          </mxGeometry>
        </mxCell>
        <mxCell id="cDjwinY1eeLpdXghqZBT-6" value="&lt;font style=&quot;font-size: 20px;&quot;&gt;Footer&lt;/font&gt;" style="text;html=1;align=center;verticalAlign=middle;resizable=0;points=[];autosize=1;strokeColor=none;fillColor=none;" vertex="1" parent="1">
          <mxGeometry x="330.91999999999996" y="650" width="80" height="40" as="geometry" />
        </mxCell>
        <mxCell id="cDjwinY1eeLpdXghqZBT-8" value="" style="endArrow=none;html=1;rounded=0;exitX=-0.001;exitY=0.387;exitDx=0;exitDy=0;exitPerimeter=0;entryX=1.001;entryY=0.32;entryDx=0;entryDy=0;entryPerimeter=0;" edge="1" parent="1" source="cDjwinY1eeLpdXghqZBT-2">
          <mxGeometry width="50" height="50" relative="1" as="geometry">
            <mxPoint x="141.38000000000005" y="351.86" as="sourcePoint" />
            <mxPoint x="600.9200000000001" y="349.9999999999999" as="targetPoint" />
          </mxGeometry>
        </mxCell>
        <mxCell id="cDjwinY1eeLpdXghqZBT-9" value="&lt;font style=&quot;font-size: 20px;&quot;&gt;Slider&lt;/font&gt;" style="text;html=1;align=center;verticalAlign=middle;resizable=0;points=[];autosize=1;strokeColor=none;fillColor=none;" vertex="1" parent="1">
          <mxGeometry x="330.91999999999996" y="260" width="70" height="40" as="geometry" />
        </mxCell>
        <mxCell id="cDjwinY1eeLpdXghqZBT-10" value="&lt;font style=&quot;font-size: 20px;&quot;&gt;Content&lt;/font&gt;" style="text;html=1;align=center;verticalAlign=middle;resizable=0;points=[];autosize=1;strokeColor=none;fillColor=none;" vertex="1" parent="1">
          <mxGeometry x="320.91999999999996" y="450" width="90" height="40" as="geometry" />
        </mxCell>
        <mxCell id="WCcKZ33W_sONhB5LaHSo-1" value="" style="rounded=0;whiteSpace=wrap;html=1;" vertex="1" parent="1">
          <mxGeometry x="10" y="770" width="720" height="480" as="geometry" />
        </mxCell>
        <mxCell id="WCcKZ33W_sONhB5LaHSo-2" value="" style="endArrow=none;html=1;rounded=0;entryX=0.208;entryY=0.002;entryDx=0;entryDy=0;entryPerimeter=0;" edge="1" parent="1">
          <mxGeometry width="50" height="50" relative="1" as="geometry">
            <mxPoint x="210.24" y="1290" as="sourcePoint" />
            <mxPoint x="210.00000000000023" y="772.04" as="targetPoint" />
          </mxGeometry>
        </mxCell>
        <mxCell id="WCcKZ33W_sONhB5LaHSo-3" value="&lt;font style=&quot;font-size: 20px;&quot;&gt;Menu&lt;/font&gt;" style="text;html=1;align=center;verticalAlign=middle;resizable=0;points=[];autosize=1;strokeColor=none;fillColor=none;" vertex="1" parent="1">
          <mxGeometry x="80" y="1000" width="70" height="40" as="geometry" />
        </mxCell>
        <mxCell id="WCcKZ33W_sONhB5LaHSo-4" value="&lt;font style=&quot;font-size: 20px;&quot;&gt;Content&lt;/font&gt;" style="text;html=1;align=center;verticalAlign=middle;resizable=0;points=[];autosize=1;strokeColor=none;fillColor=none;" vertex="1" parent="1">
          <mxGeometry x="430" y="1000" width="90" height="40" as="geometry" />
        </mxCell>
      </root>
    </mxGraphModel>
  </diagram>
  <diagram id="i64jCk6W2XHHXfdZDW4l" name="Page-2">
    <mxGraphModel dx="1219" dy="722" grid="1" gridSize="10" guides="1" tooltips="1" connect="1" arrows="1" fold="1" page="1" pageScale="1" pageWidth="850" pageHeight="1100" math="0" shadow="0">
      <root>
        <mxCell id="0" />
        <mxCell id="1" parent="0" />
        <mxCell id="M2BCmxZzhFgxU2frditE-1" value="" style="rounded=0;whiteSpace=wrap;html=1;" vertex="1" parent="1">
          <mxGeometry x="50" y="120" width="720" height="520" as="geometry" />
        </mxCell>
        <mxCell id="M2BCmxZzhFgxU2frditE-3" value="" style="endArrow=none;html=1;rounded=0;entryX=0.208;entryY=0.002;entryDx=0;entryDy=0;entryPerimeter=0;" edge="1" parent="1">
          <mxGeometry width="50" height="50" relative="1" as="geometry">
            <mxPoint x="250.24" y="640" as="sourcePoint" />
            <mxPoint x="250.00000000000023" y="122.03999999999996" as="targetPoint" />
          </mxGeometry>
        </mxCell>
        <mxCell id="M2BCmxZzhFgxU2frditE-4" value="&lt;font style=&quot;font-size: 20px;&quot;&gt;Menu&lt;/font&gt;" style="text;html=1;align=center;verticalAlign=middle;resizable=0;points=[];autosize=1;strokeColor=none;fillColor=none;" vertex="1" parent="1">
          <mxGeometry x="110" y="370" width="70" height="40" as="geometry" />
        </mxCell>
        <mxCell id="M2BCmxZzhFgxU2frditE-5" value="&lt;font style=&quot;font-size: 20px;&quot;&gt;Content&lt;/font&gt;" style="text;html=1;align=center;verticalAlign=middle;resizable=0;points=[];autosize=1;strokeColor=none;fillColor=none;" vertex="1" parent="1">
          <mxGeometry x="470" y="370" width="90" height="40" as="geometry" />
        </mxCell>
      </root>
    </mxGraphModel>
  </diagram>
</mxfile>
